<?xml version="1.0" standalone="yes"?>
<svg xmlns="http://www.w3.org/2000/svg" width="276" height="62">
<path style="fill:#ffffff; stroke:none;" d="M0 0L0 62L276 62L276 0L217 0C212.757 0 202.015 -1.91474 199.028 1.74074C197.691 3.376 198.023 6.04781 198 8C196.805 6.77724 196.684 6.57998 196 5C192.924 6.90096 190.975 12.4109 186.999 12.4437C184.242 12.4664 181.664 9.73154 179 9L181 0L78 0C68.631 0 49.2147 -3.78284 43.0633 5.58411C41.3883 8.13458 42.9616 13.0931 42.9961 16C43.1032 24.9973 43 34.002 43 43L36 43L36 9L41 9C38.1453 6.22607 37.2178 3.97235 37 0L0 0z"/>
<path style="fill:#f2f2f2; stroke:none;" d="M37 0C37.1105 4.55772 37.6517 7.07995 42 9C43.3029 4.69429 47.3829 4.04092 49 0L37 0z"/>
<path style="fill:#f7f7f7; stroke:none;" d="M179 9C181.15 9.94691 183.075 11.8011 185.31 12.4722C190.501 14.0306 192.899 7.87698 196 5L196 8L198 8C198.083 5.09236 198.241 3.30783 200 1C196.079 -0.645489 184.148 -1.76471 180.904 1.6034C179.071 3.50701 179.201 6.5531 179 9z"/>
<path style="fill:#dbf6e7; stroke:none;" d="M109.333 5.66667C109.278 5.72225 109.222 6.77777 109.667 6.33333C109.722 6.27781 109.778 5.22222 109.333 5.66667z"/>
<path style="fill:#6fc493; stroke:none;" d="M110 7C115.637 5.65783 121.363 5.65784 127 7C124.078 3.65628 112.922 3.65628 110 7z"/>
<path style="fill:#d2f6e1; stroke:none;" d="M127.333 5.66667C127.278 5.72226 127.222 6.77776 127.667 6.33333C127.722 6.27781 127.778 5.22222 127.333 5.66667z"/>
<path style="fill:#26a45c; stroke:none;" d="M111 6C114.697 7.55153 119.017 7 123 7C121.994 8.67609 121.991 9.58629 121 8C120.177 10.2631 120.996 10.7525 123 12C124.261 9.99017 125.19 8.22221 126 6L111 6z"/>
<path style="fill:#a9eac4; stroke:none;" d="M110 7L111 8L110 7z"/>
<path style="fill:#36af60; stroke:none;" d="M111 7L113 12C116.215 9.82426 118.254 8.18371 122 10C122.986 8.5215 123 8.79679 123 7L111 7z"/>
<path style="fill:#9cbdb7; stroke:none;" d="M111 8L112 9L111 8z"/>
<path style="fill:#209e38; stroke:none;" d="M117 8C115.344 12.1102 115.466 14.865 117 19L119 19C121.347 14.7954 121.558 12.4898 120 8L117 8z"/>
<path style="fill:#5f5f5f; stroke:none;" d="M36 9C38.0521 9.87425 39.7472 9.95279 42 10C39.9479 9.12575 38.2528 9.04721 36 9z"/>
<path style="fill:#c2c2c2; stroke:none;" d="M42 9L42 43C43.3283 39.8344 42.9998 36.4186 43 33C43.0005 25.7847 44.8019 15.6774 42 9z"/>
<path style="fill:#6ec495; stroke:none;" d="M124 9L125 10L124 9z"/>
<path style="fill:#d6d6d6; stroke:none;" d="M252 9C253.248 9.68481 253.548 9.74879 255 10C253.752 9.31521 253.452 9.25121 252 9z"/>
<path style="fill:#333333; stroke:none;" d="M36 10L36 42C38.3599 40.5251 39.3028 41.1252 42 42L42 11C39.8327 11.2767 38.991 11.1104 38 13L36 10z"/>
<path style="fill:#232323; stroke:none;" d="M37 13L42 11C39.3872 9.502 37.6455 9.9876 37 13z"/>
<path style="fill:#19a959; stroke:none;" d="M114 10L114 13C115.015 11.8606 115.309 11.3884 116 10L114 10z"/>
<path style="fill:#bae7c7; stroke:none;" d="M124 10L125 11L124 10z"/>
<path style="fill:#949494; stroke:none;" d="M251 10L252 11L251 10z"/>
<path style="fill:#1d1d1d; stroke:none;" d="M251 14C252.781 12.7677 253.94 11.8585 255 10C252.374 10.8387 251.839 11.3735 251 14z"/>
<path style="fill:#7d7d7d; stroke:none;" d="M255 10L256 11L255 10z"/>
<path style="fill:#303030; stroke:none;" d="M4 11C4.30674 13.1227 4.3821 13.686 6 15C3.96467 21.8857 2.07219 39.0852 10 42L10 11L4 11z"/>
<path style="fill:#a5a5a5; stroke:none;" d="M10 11L10 43C11.3283 39.8344 10.9998 36.4186 11 33C11.0004 26.3144 12.599 17.1937 10 11z"/>
<path style="fill:#92d7a7; stroke:none;" d="M123 11L124 12L123 11z"/>
<path style="fill:#c9c9c9; stroke:none;" d="M150 11L150 43C152.599 36.8063 151 27.6856 151 21C151 17.5814 151.328 14.1656 150 11z"/>
<path style="fill:#242424; stroke:none;" d="M151 11L151 42L157 42L157 29C155.178 33.3425 156.652 37.4234 153 41C152.234 31.2909 152 21.763 152 12C154.018 12.3401 154.968 12.3233 157 12C157.465 13.8938 158.066 15.2773 159 17C160.89 11.557 155.058 11.0456 151 11z"/>
<path style="fill:#4a4a4a; stroke:none;" d="M158.333 11.6667C158.278 11.7222 158.222 12.7778 158.667 12.3333C158.722 12.2777 158.778 11.2222 158.333 11.6667z"/>
<path style="fill:#8c8c8c; stroke:none;" d="M159.333 11.6667C159.278 11.7222 159.222 12.7778 159.667 12.3333C159.722 12.2777 159.778 11.2222 159.333 11.6667z"/>
<path style="fill:#bababa; stroke:none;" d="M170.333 11.6667C170.278 11.7222 170.222 12.7778 170.667 12.3333C170.722 12.2777 170.778 11.2222 170.333 11.6667z"/>
<path style="fill:#303030; stroke:none;" d="M171 11L172 16C167.565 16.6615 166.282 29.8443 166 34L164 34C163.318 25.6486 160.205 19.4425 157 12L152 12C152 21.7331 151.779 31.3412 153 41C158.147 37.6633 156.388 27.4882 156 22L158 22C158.832 28.704 162.484 34.4692 164 41C167.721 39.5732 168.509 37.9155 168 34C171.29 31.3034 170.754 26.0253 171 22L174 22C174.457 28.7102 173 35.2146 173 42L179 42L179 11L171 11z"/>
<path style="fill:#8f8f8f; stroke:none;" d="M179 11L179 43C180.328 39.8344 180 36.4186 180 33C180 26.3144 181.599 17.1937 179 11z"/>
<path style="fill:#b0b0b0; stroke:none;" d="M250 11L251 12L250 11z"/>
<path style="fill:#2a2a2a; stroke:none;" d="M255 11C254.014 12.4785 254 12.2032 254 14C252.977 12.4661 253.195 12.5977 252 12L251 16L256 16C255.912 14.0359 255.779 12.7691 255 11z"/>
<path style="fill:#9c9c9c; stroke:none;" d="M256 11L257 12L256 11z"/>
<path style="fill:#d0efbf; stroke:none;" d="M113 12L113 15C113.696 13.4463 113.696 13.5537 113 12z"/>
<path style="fill:#7aca78; stroke:none;" d="M122.333 12.6667C122.278 12.7223 122.222 13.7778 122.667 13.3333C122.722 13.2778 122.778 12.2222 122.333 12.6667z"/>
<path style="fill:#6f6f6f; stroke:none;" d="M250.333 12.6667C250.278 12.7222 250.222 13.7778 250.667 13.3333C250.722 13.2777 250.778 12.2222 250.333 12.6667z"/>
<path style="fill:#4f4f4f; stroke:none;" d="M253.333 12.6667C253.278 12.7222 253.222 13.7778 253.667 13.3333C253.722 13.2777 253.778 12.2222 253.333 12.6667z"/>
<path style="fill:#5b5b5b; stroke:none;" d="M256.333 12.6667C256.278 12.7222 256.222 13.7778 256.667 13.3333C256.722 13.2777 256.778 12.2223 256.333 12.6667z"/>
<path style="fill:#7cbc17; stroke:none;" d="M114 13L114 16C114.696 14.4463 114.696 14.5537 114 13z"/>
<path style="fill:#707070; stroke:none;" d="M170.333 13.6667C170.278 13.7222 170.222 14.7778 170.667 14.3333C170.722 14.2777 170.778 13.2222 170.333 13.6667z"/>
<path style="fill:#949494; stroke:none;" d="M262 13L262 19C262.951 16.7147 262.951 15.2853 262 13z"/>
<path style="fill:#707070; stroke:none;" d="M263 13C264.769 13.7789 266.036 13.9124 268 14C266.231 13.2211 264.964 13.0876 263 13z"/>
<path style="fill:#adadad; stroke:none;" d="M268 13L269 14L268 13z"/>
<path style="fill:#46b922; stroke:none;" d="M115.333 14.6667C115.278 14.7222 115.222 15.7778 115.667 15.3333C115.722 15.2778 115.778 14.2222 115.333 14.6667z"/>
<path style="fill:#57b500; stroke:none;" d="M121.333 14.6667C121.278 14.7222 121.222 15.7778 121.667 15.3333C121.722 15.2778 121.778 14.2222 121.333 14.6667z"/>
<path style="fill:#a4cb00; stroke:none;" d="M122 14L121 18C122.434 19.3925 123.045 20.2328 124 22L120 19C119.02 27.5123 128.764 38.8068 132.989 46C134.609 48.7574 136.007 52.3237 138.529 54.3966C140.668 56.1536 143.4 55.9692 146 56C144.393 50.4352 140.948 46.0598 138.258 41C133.491 32.0321 128.677 21.683 122 14z"/>
<path style="fill:#dadada; stroke:none;" d="M169.333 14.6667C169.278 14.7222 169.222 15.7778 169.667 15.3333C169.722 15.2777 169.778 14.2222 169.333 14.6667z"/>
<path style="fill:#111111; stroke:none;" d="M171.333 14.6667C171.278 14.7222 171.222 15.7778 171.667 15.3333C171.722 15.2777 171.778 14.2222 171.333 14.6667z"/>
<path style="fill:#171717; stroke:none;" d="M174.333 14.6667C174.278 14.7222 174.222 15.7778 174.667 15.3333C174.722 15.2777 174.778 14.2222 174.333 14.6667z"/>
<path style="fill:#b1b1b1; stroke:none;" d="M250 14L251 15L250 14z"/>
<path style="fill:#979797; stroke:none;" d="M256 14L257 15L256 14z"/>
<path style="fill:#121212; stroke:none;" d="M263 14C264.506 14.683 265.315 14.8259 267 15C265.494 14.317 264.685 14.1741 263 14z"/>
<path style="fill:#2f2f2f; stroke:none;" d="M267 14L263 15C262.185 18.1411 260.5 20.7712 260 24L263 24C263 30.0321 262.595 36.0993 264 42L266 42C267.774 36.0123 267.996 29.2394 268 23C270.209 22.3161 270.703 21.9201 272 20C269.212 18.4786 268.463 16.7386 267 14z"/>
<path style="fill:#8a8a8a; stroke:none;" d="M268 14L268 19C268.83 16.9695 268.83 16.0305 268 14z"/>
<path style="fill:#202020; stroke:none;" d="M4 15L4 42C7.35863 33.996 3.96091 23.5647 6 15L4 15z"/>
<path style="fill:#a6ca03; stroke:none;" d="M113 15L90 56C92.4077 55.9915 95.3462 56.3496 97.4715 54.9722C100.102 53.2675 101.64 49.628 103.15 47L112.284 31C115.533 25.3552 120.073 19.4958 113 15z"/>
<path style="fill:#f3ee8b; stroke:none;" d="M123 15L124 16L123 15z"/>
<path style="fill:#eaeaea; stroke:none;" d="M163 15L163 18C164.015 16.8606 164.309 16.3885 165 15L163 15z"/>
<path style="fill:#80b922; stroke:none;" d="M120.333 16.6667C120.278 16.7223 120.222 17.7778 120.667 17.3333C120.722 17.2778 120.778 16.2222 120.333 16.6667z"/>
<path style="fill:#cadf61; stroke:none;" d="M124.333 16.6667C124.278 16.7223 124.222 17.7778 124.667 17.3333C124.722 17.2778 124.778 16.2222 124.333 16.6667z"/>
<path style="fill:#4e4e4e; stroke:none;" d="M160.333 16.6667C160.278 16.7222 160.222 17.7778 160.667 17.3333C160.722 17.2778 160.778 16.2222 160.333 16.6667z"/>
<path style="fill:#8e8e8e; stroke:none;" d="M169.333 16.6667C169.278 16.7222 169.222 17.7778 169.667 17.3333C169.722 17.2777 169.778 16.2222 169.333 16.6667z"/>
<path style="fill:#e0e0e0; stroke:none;" d="M253.667 16.3333C253.222 16.7778 254.278 16.7222 254.333 16.6667C254.778 16.2222 253.722 16.2778 253.667 16.3333z"/>
<path style="fill:#d9d9d9; stroke:none;" d="M54 18C55.5061 18.683 56.3148 18.8259 58 19C56.494 18.317 55.6852 18.1741 54 18z"/>
<path style="fill:#c8da67; stroke:none;" d="M111 18L112 19L111 18z"/>
<path style="fill:#80bd0b; stroke:none;" d="M119.333 18.6667C119.278 18.7223 119.222 19.7778 119.667 19.3333C119.722 19.2778 119.778 18.2222 119.333 18.6667z"/>
<path style="fill:#b3ce17; stroke:none;" d="M120 18C121.33 19.7525 122.247 20.6697 124 22C123.03 19.5083 122.525 18.8544 120 18z"/>
<path style="fill:#e1f09c; stroke:none;" d="M125 18L126 19L125 18z"/>
<path style="fill:#dedede; stroke:none;" d="M192.667 18.3333C192.222 18.7778 193.278 18.7222 193.333 18.6667C193.778 18.2222 192.722 18.2778 192.667 18.3333z"/>
<path style="fill:#e5e5e5; stroke:none;" d="M239.667 18.3333C239.222 18.7778 240.278 18.7222 240.333 18.6667C240.778 18.2223 239.722 18.2777 239.667 18.3333z"/>
<path style="fill:#bfbfbf; stroke:none;" d="M14.3333 19.6667C14.2778 19.7222 14.2222 20.7778 14.6667 20.3333C14.7222 20.2778 14.7778 19.2222 14.3333 19.6667z"/>
<path style="fill:#757575; stroke:none;" d="M15 19C17.0521 19.8742 18.7472 19.9528 21 20C18.9479 19.1258 17.2528 19.0472 15 19z"/>
<path style="fill:#6d6d6d; stroke:none;" d="M26 19C28.0521 19.8742 29.7472 19.9528 32 20C29.9479 19.1258 28.2528 19.0472 26 19z"/>
<path style="fill:#cecece; stroke:none;" d="M51 19L52 20L51 19z"/>
<path style="fill:#8a8a8a; stroke:none;" d="M52 19L53 20L52 19z"/>
<path style="fill:#3c3c3c; stroke:none;" d="M53 19C55.0521 19.8742 56.7472 19.9528 59 20C56.9479 19.1258 55.2528 19.0472 53 19z"/>
<path style="fill:#8d8d8d; stroke:none;" d="M59 19L60 20L59 19z"/>
<path style="fill:#d1d1d1; stroke:none;" d="M60 19L61 20L60 19z"/>
<path style="fill:#ababab; stroke:none;" d="M73 19L74 20L73 19z"/>
<path style="fill:#242424; stroke:none;" d="M75 32C73.9237 30.2286 72.2476 28.1825 72.1574 26.0139C71.8148 17.7721 80.9786 22.3404 84 25L81 24C82.314 25.6179 82.8772 25.6933 85 26C84.4722 24.165 84.1557 22.7763 82.6821 21.409C74.6992 14.0014 64.5615 26.7353 75 32z"/>
<path style="fill:#757575; stroke:none;" d="M80 19L81 20L80 19z"/>
<path style="fill:#b4b4b4; stroke:none;" d="M81 19L82 20L81 19z"/>
<path style="fill:#e7f59e; stroke:none;" d="M110 19L111 20L110 19z"/>
<path style="fill:#34af44; stroke:none;" d="M117.667 19.3333C117.222 19.7778 118.278 19.7222 118.333 19.6667C118.778 19.2222 117.722 19.2778 117.667 19.3333z"/>
<path style="fill:#b7b7b7; stroke:none;" d="M161 19L162 20L161 19M188 19L189 20L188 19z"/>
<path style="fill:#535353; stroke:none;" d="M189.667 19.3333C189.222 19.7778 190.278 19.7222 190.333 19.6667C190.778 19.2223 189.722 19.2778 189.667 19.3333z"/>
<path style="fill:#313131; stroke:none;" d="M191 19C192.506 19.683 193.315 19.8259 195 20C193.494 19.317 192.685 19.1741 191 19z"/>
<path style="fill:#898989; stroke:none;" d="M195.667 19.3333C195.222 19.7778 196.278 19.7222 196.333 19.6667C196.778 19.2222 195.722 19.2778 195.667 19.3333z"/>
<path style="fill:#c5c5c5; stroke:none;" d="M197 19L198 20L197 19z"/>
<path style="fill:#b1b1b1; stroke:none;" d="M208.667 19.3333C208.222 19.7778 209.278 19.7222 209.333 19.6667C209.778 19.2223 208.722 19.2778 208.667 19.3333z"/>
<path style="fill:#7b7b7b; stroke:none;" d="M210 19L211 20L210 19z"/>
<path style="fill:#3c3c3c; stroke:none;" d="M208 21C211.523 23.069 216.235 23.2864 219 20C214.995 19.9049 211.61 18.8828 208 21z"/>
<path style="fill:#797979; stroke:none;" d="M214.667 19.3333C214.222 19.7778 215.278 19.7222 215.333 19.6667C215.778 19.2223 214.722 19.2777 214.667 19.3333z"/>
<path style="fill:#969696; stroke:none;" d="M218 19L219 20L218 19z"/>
<path style="fill:#727272; stroke:none;" d="M219 19C220.506 19.683 221.315 19.8259 223 20C221.494 19.317 220.685 19.1741 219 19z"/>
<path style="fill:#a4a4a4; stroke:none;" d="M223 19L224 20L223 19z"/>
<path style="fill:#737373; stroke:none;" d="M228 19C229.769 19.779 231.036 19.9124 233 20C231.231 19.2211 229.964 19.0876 228 19z"/>
<path style="fill:#bcbcbc; stroke:none;" d="M233 19L234 20L233 19z"/>
<path style="fill:#a8a8a8; stroke:none;" d="M236 19L237 20L236 19z"/>
<path style="fill:#474747; stroke:none;" d="M237 19C238.769 19.779 240.036 19.9124 242 20C240.231 19.2211 238.964 19.0876 237 19z"/>
<path style="fill:#a9a9a9; stroke:none;" d="M242 19L243 20L242 19z"/>
<path style="fill:#b8b8b8; stroke:none;" d="M250 19L251 20L250 19z"/>
<path style="fill:#6c6c6c; stroke:none;" d="M251 19C252.769 19.7789 254.036 19.9124 256 20C254.231 19.2211 252.964 19.0876 251 19z"/>
<path style="fill:#adadad; stroke:none;" d="M256 19L257 20L256 19z"/>
<path style="fill:#cacaca; stroke:none;" d="M259 19L259 24C259.83 21.9695 259.83 21.0305 259 19z"/>
<path style="fill:#767676; stroke:none;" d="M260.667 19.3333C260.222 19.7778 261.278 19.7222 261.333 19.6667C261.778 19.2222 260.722 19.2777 260.667 19.3333z"/>
<path style="fill:#747474; stroke:none;" d="M269 19C270.248 19.6848 270.548 19.7488 272 20C270.752 19.3152 270.452 19.2512 269 19z"/>
<path style="fill:#333333; stroke:none;" d="M15 20C16.0081 22.6136 16.2809 23.6858 19 24C20.2259 26.0347 20.7026 26.3265 23 27C23.0519 29.5284 23.2776 31.5819 24 34L25 28C25.8032 30.4004 26.0933 32.3718 28 34C27.5993 29.1912 29.4783 25.4718 31 21C26.6059 19.9794 25.2517 21.9229 24 26C22.1043 23.6304 22.8957 23.6304 21 26L21 20L15 20z"/>
<path style="fill:#9a9a9a; stroke:none;" d="M21.3333 20.6667C21.2778 20.7222 21.2222 21.7778 21.6667 21.3333C21.7222 21.2778 21.7778 20.2222 21.3333 20.6667z"/>
<path style="fill:#939393; stroke:none;" d="M25.3333 20.6667C25.2778 20.7222 25.2222 21.7778 25.6667 21.3333C25.7222 21.2778 25.7778 20.2222 25.3333 20.6667z"/>
<path style="fill:#0e0e0e; stroke:none;" d="M30.6667 20.3333C30.2222 20.7778 31.2778 20.7222 31.3333 20.6667C31.7778 20.2222 30.7222 20.2778 30.6667 20.3333z"/>
<path style="fill:#8d8d8d; stroke:none;" d="M50 20L51 21L50 20z"/>
<path style="fill:#1a1a1a; stroke:none;" d="M50 23C53.0895 21.8159 55.67 21.0971 59 21C55.4755 19.5247 52.1441 19.6927 50 23z"/>
<path style="fill:#404040; stroke:none;" d="M51 26C55.2892 22.5219 56.6806 23.2981 61 26L61 20C56.2039 20.8947 52.1755 20.6133 51 26z"/>
<path style="fill:#8e8e8e; stroke:none;" d="M61 20L62 21L61 20z"/>
<path style="fill:#c0c0c0; stroke:none;" d="M71 20L72 21L71 20z"/>
<path style="fill:#303030; stroke:none;" d="M69 36C70.4752 40.2014 75.999 45.4006 80 41C82.2477 41.0456 82.8958 40.8764 85 40C84.707 37.2671 84.7702 34.7376 85 32C82.5877 30.7588 79.2915 29.6049 77.466 27.5285C74.9775 24.6979 78.0029 24.2904 80 26C81.6068 24.9957 82.0351 24.8035 84 25C83.0298 23.777 82.2887 22.4891 80.8619 21.7122C77.1822 19.7087 71.4752 20.8328 71.6582 26.0177C71.7666 29.088 74.2323 31.1289 76.2122 33.1381C77.1045 34.0436 79.3126 35.8147 78.0941 37.2963C76.7951 38.8758 70.9419 36.1456 69 36z"/>
<path style="fill:#787878; stroke:none;" d="M82 20L83 21L82 20z"/>
<path style="fill:#c5c5c5; stroke:none;" d="M83 20L84 21L83 20z"/>
<path style="fill:#81c94c; stroke:none;" d="M118 20L119 21L118 20z"/>
<path style="fill:#dcee87; stroke:none;" d="M126 20L127 21L126 20z"/>
<path style="fill:#868686; stroke:none;" d="M161 20L162 21L161 20z"/>
<path style="fill:#bababa; stroke:none;" d="M168 20L169 21L168 20z"/>
<path style="fill:#d4d4d4; stroke:none;" d="M186 20L187 21L186 20z"/>
<path style="fill:#818181; stroke:none;" d="M187 20L188 21L187 20z"/>
<path style="fill:#1e1e1e; stroke:none;" d="M185 26C189.389 23.1003 191.405 21.0661 197 21C191.504 18.6947 187.185 20.6112 185 26z"/>
<path style="fill:#2e2e2e; stroke:none;" d="M197 20C195.483 20.9573 194.661 21.3872 193 22L196 28C192.9 28.793 188.48 28.5257 188 32C186.018 32.4646 185.594 32.7035 184 34C185.045 36.3147 185.542 39.6731 187.524 41.3819C190.618 44.0494 197.216 41.0886 201 41C200.865 34.4566 202.113 24.5476 197 20z"/>
<path style="fill:#a6a6a6; stroke:none;" d="M198 20L199 21L198 20z"/>
<path style="fill:#000000; stroke:none;" d="M211 20C212.248 20.6848 212.548 20.7488 214 21C212.752 20.3152 212.452 20.2512 211 20z"/>
<path style="fill:#828282; stroke:none;" d="M216.667 20.3333C216.222 20.7778 217.278 20.7222 217.333 20.6667C217.778 20.2222 216.722 20.2778 216.667 20.3333z"/>
<path style="fill:#2f2f2f; stroke:none;" d="M207 22L208 26C209.3 25.3501 209 25.8532 209 24C209.69 28.0774 209.544 32.6459 207 36C207.36 32.6298 207.117 29.3783 207 26L205 26C205.005 34.0926 206.148 45.7368 217 41C217.23 47.1391 213.02 47.3589 208 46L207 50C209.251 50.7007 211.603 51.7412 214.002 51.6821C227.563 51.3477 223 28.9383 223 20C217.337 20.7498 212.896 22.3436 207 22z"/>
<path style="fill:#838383; stroke:none;" d="M223 20L223 44C225.349 38.4031 225.349 25.5969 223 20z"/>
<path style="fill:#313131; stroke:none;" d="M228 20L228 24C228.71 22.2405 228.71 21.7595 228 20z"/>
<path style="fill:#1a1a1a; stroke:none;" d="M229 20C228.151 26.7156 228 33.2286 228 40C230.577 33.8584 226.373 25.0544 233 21C231.494 20.317 230.685 20.1741 229 20z"/>
<path style="fill:#414141; stroke:none;" d="M233 20C233.98 21.7833 233.908 21.5943 236 22C234.861 20.9846 234.388 20.6913 233 20z"/>
<path style="fill:#909090; stroke:none;" d="M234.667 20.3333C234.222 20.7778 235.278 20.7222 235.333 20.6667C235.778 20.2222 234.722 20.2778 234.667 20.3333z"/>
<path style="fill:#1e1e1e; stroke:none;" d="M234 23C236.52 23.7557 238.39 24.1729 241 24C239.276 22.9445 239.079 22.9642 237 23C240.009 22.1365 241.156 22.6045 244 24C242 19.0256 237.402 19.4241 234 23z"/>
<path style="fill:#ababab; stroke:none;" d="M243 20L244 21L243 20z"/>
<path style="fill:#969696; stroke:none;" d="M250 20L250 43C252.284 37.5573 252.284 25.4427 250 20z"/>
<path style="fill:#1f1f1f; stroke:none;" d="M251 20L251 42L256 42C254.494 41.3169 253.685 41.1741 252 41C252 34.7236 249.728 24.4587 256 21C254.231 20.2211 252.964 20.0876 251 20z"/>
<path style="fill:#6f6f6f; stroke:none;" d="M256 20L256 42C258.219 36.7126 258.219 25.2874 256 20z"/>
<path style="fill:#717171; stroke:none;" d="M15 21L16 22L15 21z"/>
<path style="fill:#404040; stroke:none;" d="M28 21L26 26C28.1314 24.5155 28.7101 23.5307 28 21z"/>
<path style="fill:#676767; stroke:none;" d="M31 21L32 22L31 21z"/>
<path style="fill:#9a9a9a; stroke:none;" d="M49 21L50 22L49 21z"/>
<path style="fill:#2b2b2b; stroke:none;" d="M60 21C60.3257 24.0492 60.1782 26.9442 60 30C61.4215 28.2115 61.6974 27.2943 62 25C63.0361 28.1355 63.3589 30.7149 63 34C67.3559 30.1937 64.4261 23.3227 60 21z"/>
<path style="fill:#999999; stroke:none;" d="M62 21L63 22L62 21z"/>
<path style="fill:#bfbfbf; stroke:none;" d="M70 21L71 22L70 21z"/>
<path style="fill:#4c4c4c; stroke:none;" d="M83 21L84 22L83 21z"/>
<path style="fill:#c3c3c3; stroke:none;" d="M84 21L85 22L84 21z"/>
<path style="fill:#d7e68a; stroke:none;" d="M109 21L110 22L109 21z"/>
<path style="fill:#d2e782; stroke:none;" d="M117.667 21.3333C117.222 21.7777 118.278 21.7222 118.333 21.6667C118.778 21.2222 117.722 21.2778 117.667 21.3333z"/>
<path style="fill:#7a7a7a; stroke:none;" d="M168 21L169 22L168 21z"/>
<path style="fill:#cccccc; stroke:none;" d="M185 21L186 22L185 21z"/>
<path style="fill:#606060; stroke:none;" d="M186 21L187 22L186 21z"/>
<path style="fill:#313131; stroke:none;" d="M187 26C189.68 25.2562 190.719 24.4714 192 22C188.749 22.1343 187.948 22.8978 187 26z"/>
<path style="fill:#424242; stroke:none;" d="M190 21C192.162 22.2537 193.483 22.2245 196 22C193.948 21.1258 192.253 21.0472 190 21z"/>
<path style="fill:#616161; stroke:none;" d="M198 21L199 22L198 21z"/>
<path style="fill:#919191; stroke:none;" d="M199 21L200 22L199 21z"/>
<path style="fill:#c2c2c2; stroke:none;" d="M206 21L207 22L206 21z"/>
<path style="fill:#676767; stroke:none;" d="M207 21L208 22L207 21z"/>
<path style="fill:#343434; stroke:none;" d="M230 21C228.722 27.8841 228.37 35.1515 230 42L234 42C232.783 35.4197 233.374 29.1883 236 23C233.958 22.1055 232.172 21.4637 230 21z"/>
<path style="fill:#383838; stroke:none;" d="M237 22C238.37 22.5817 239.507 22.7967 241 23L239 25C241.275 30.37 241.344 35.3561 240 41L244 41C244 34.7889 246.612 20.6258 237 22z"/>
<path style="fill:#4c4c4c; stroke:none;" d="M243 21L244 22L243 21z"/>
<path style="fill:#b7b7b7; stroke:none;" d="M244 21L245 22L244 21z"/>
<path style="fill:#3d3d3d; stroke:none;" d="M253 21L253 41C255.531 34.9685 251.902 27.4087 256 22C254.752 21.3152 254.452 21.2512 253 21z"/>
<path style="fill:#515151; stroke:none;" d="M271 21C269.777 22.1952 269.58 22.3164 268 23C270.139 23.9524 271.976 23.5767 271 21z"/>
<path style="fill:#191919; stroke:none;" d="M20 22L21 26C21.7511 23.9535 21.6556 23.4043 20 22z"/>
<path style="fill:#bababa; stroke:none;" d="M22.3333 22.6667C22.2778 22.7222 22.2222 23.7778 22.6667 23.3333C22.7222 23.2778 22.7778 22.2222 22.3333 22.6667z"/>
<path style="fill:#b3b3b3; stroke:none;" d="M24.3333 22.6667C24.2778 22.7222 24.2222 23.7778 24.6667 23.3333C24.7222 23.2778 24.7778 22.2222 24.3333 22.6667z"/>
<path style="fill:#545454; stroke:none;" d="M30.3333 22.6667C30.2778 22.7222 30.2222 23.7778 30.6667 23.3333C30.7222 23.2778 30.7778 22.2222 30.3333 22.6667z"/>
<path style="fill:#cecece; stroke:none;" d="M31 22L32 23L31 22z"/>
<path style="fill:#8e8e8e; stroke:none;" d="M48 22L49 23L48 22z"/>
<path style="fill:#383838; stroke:none;" d="M49 22C46.7672 27.5635 47.6384 34.2381 49 40C50.2997 39.3502 50 39.8532 50 38C50.7883 39.6989 50.9809 40.1827 51 42C57.0936 43.1105 60.1229 42.2452 62 36L65 37C64.5943 34.9076 64.7833 34.9802 63 34C63.6728 30.8976 63.2416 28.1603 63 25C60.65 28.992 60.6939 32.4912 61 37L60 35C59.4257 36.8092 59.5347 37.0688 60 39L54 40C53.7664 34.8697 52.3919 25.9004 49 22z"/>
<path style="fill:#2a2a2a; stroke:none;" d="M52 26C54.3983 24.9729 56.4158 24.322 59 24C55.8197 21.7247 53.8175 22.7115 52 26z"/>
<path style="fill:#8c8c8c; stroke:none;" d="M63 22L64 23L63 22z"/>
<path style="fill:#676767; stroke:none;" d="M70 22L71 23L70 22z"/>
<path style="fill:#717171; stroke:none;" d="M84 22L85 23L84 22z"/>
<path style="fill:#d6e292; stroke:none;" d="M108.333 22.6667C108.278 22.7223 108.222 23.7778 108.667 23.3333C108.722 23.2778 108.778 22.2222 108.333 22.6667z"/>
<path style="fill:#cde062; stroke:none;" d="M119 22L120 23L119 22z"/>
<path style="fill:#bbd950; stroke:none;" d="M127 22L128 23L127 22z"/>
<path style="fill:#616161; stroke:none;" d="M156 22L156 27C157.062 25.3068 157.52 23.9596 158 22L156 22z"/>
<path style="fill:#d3d3d3; stroke:none;" d="M162.333 22.6667C162.278 22.7222 162.222 23.7778 162.667 23.3333C162.722 23.2778 162.778 22.2222 162.333 22.6667z"/>
<path style="fill:#080808; stroke:none;" d="M171.333 22.6667C171.278 22.7222 171.222 23.7778 171.667 23.3333C171.722 23.2777 171.778 22.2222 171.333 22.6667z"/>
<path style="fill:#4f4f4f; stroke:none;" d="M172.333 22.6667C172.278 22.7222 172.222 23.7778 172.667 23.3333C172.722 23.2778 172.778 22.2222 172.333 22.6667z"/>
<path style="fill:#a3a3a3; stroke:none;" d="M173 22C172.637 24.2317 172.637 25.7683 173 28C173.951 25.7147 173.951 24.2853 173 22z"/>
<path style="fill:#828282; stroke:none;" d="M185 22L186 23L185 22z"/>
<path style="fill:#505050; stroke:none;" d="M206.333 22.6667C206.278 22.7222 206.222 23.7778 206.667 23.3333C206.722 23.2778 206.778 22.2222 206.333 22.6667z"/>
<path style="fill:#515151; stroke:none;" d="M244.333 22.6667C244.278 22.7222 244.222 23.7778 244.667 23.3333C244.722 23.2778 244.778 22.2222 244.333 22.6667z"/>
<path style="fill:#303030; stroke:none;" d="M252 22L252 41C254.02 36.1871 254.02 26.8129 252 22z"/>
<path style="fill:#282828; stroke:none;" d="M254 22L254 41L256 41L256 22L254 22z"/>
<path style="fill:#797979; stroke:none;" d="M69.3333 23.6667C69.2778 23.7222 69.2222 24.7778 69.6667 24.3333C69.7222 24.2778 69.7778 23.2222 69.3333 23.6667z"/>
<path style="fill:#bdbdbd; stroke:none;" d="M76.6667 23.3333C76.2222 23.7778 77.2778 23.7222 77.3333 23.6667C77.7778 23.2222 76.7222 23.2778 76.6667 23.3333z"/>
<path style="fill:#818181; stroke:none;" d="M78 23L79 24L78 23z"/>
<path style="fill:#b7b7b7; stroke:none;" d="M85 23L86 24L85 23z"/>
<path style="fill:#dff2ae; stroke:none;" d="M119 23L120 24L119 23z"/>
<path style="fill:#d0d0d0; stroke:none;" d="M184 23L185 24L184 23z"/>
<path style="fill:#4f4f4f; stroke:none;" d="M185.333 23.6667C185.278 23.7222 185.222 24.7778 185.667 24.3333C185.722 24.2778 185.778 23.2222 185.333 23.6667z"/>
<path style="fill:#848484; stroke:none;" d="M192 23L193 24L192 23z"/>
<path style="fill:#b5b5b5; stroke:none;" d="M200 23L201 24L200 23z"/>
<path style="fill:#d2d2d2; stroke:none;" d="M205 23L206 24L205 23z"/>
<path style="fill:#cbcbcb; stroke:none;" d="M16 24L17 25L16 24z"/>
<path style="fill:#232323; stroke:none;" d="M18 24C19.0386 30.476 17.7786 33.8214 16 40C22.0901 36.3174 22.6375 29.0265 18 24z"/>
<path style="fill:#5e5e5e; stroke:none;" d="M47.3333 24.6667C47.2778 24.7222 47.2222 25.7778 47.6667 25.3333C47.7222 25.2778 47.7778 24.2222 47.3333 24.6667z"/>
<path style="fill:#ffffff; stroke:none;" d="M57 38C57.8235 36.2889 58.5202 34.8793 58.7963 32.9753C59.0686 31.0975 58.8241 22.019 54.6983 25.0864C50.4302 28.2596 53.4392 36.0365 57 38z"/>
<path style="fill:#505050; stroke:none;" d="M58 24L59 25L58 24z"/>
<path style="fill:#888888; stroke:none;" d="M64 24L65 25L64 24z"/>
<path style="fill:#e1e1e1; stroke:none;" d="M75.3333 24.6667C75.2778 24.7222 75.2222 25.7778 75.6667 25.3333C75.7222 25.2778 75.7778 24.2222 75.3333 24.6667z"/>
<path style="fill:#9c9c9c; stroke:none;" d="M79.3333 24.6667C79.2778 24.7222 79.2222 25.7778 79.6667 25.3333C79.7222 25.2778 79.7778 24.2222 79.3333 24.6667z"/>
<path style="fill:#7c7c7c; stroke:none;" d="M85.3333 24.6667C85.2778 24.7222 85.2222 25.7778 85.6667 25.3333C85.7222 25.2778 85.7778 24.2222 85.3333 24.6667z"/>
<path style="fill:#cde569; stroke:none;" d="M107.333 24.6667C107.278 24.7222 107.222 25.7778 107.667 25.3333C107.722 25.2778 107.778 24.2222 107.333 24.6667z"/>
<path style="fill:#d5e182; stroke:none;" d="M120 24L121 25L120 24z"/>
<path style="fill:#f0f0f0; stroke:none;" d="M145 24C145.427 27.0177 146.685 29.2707 148 32C148.874 29.9479 148.953 28.2528 149 26L145 24z"/>
<path style="fill:#4d4d4d; stroke:none;" d="M162.333 24.6667C162.278 24.7222 162.222 25.7778 162.667 25.3333C162.722 25.2778 162.778 24.2222 162.333 24.6667z"/>
<path style="fill:#7c7c7c; stroke:none;" d="M167.333 24.6667C167.278 24.7222 167.222 25.7778 167.667 25.3333C167.722 25.2778 167.778 24.2222 167.333 24.6667z"/>
<path style="fill:#1b1b1b; stroke:none;" d="M171 24L170 29C171.318 27.0738 171.651 26.2341 171 24z"/>
<path style="fill:#a3a3a3; stroke:none;" d="M184 24L185 25L184 24z"/>
<path style="fill:#979797; stroke:none;" d="M190.333 24.6667C190.278 24.7222 190.222 25.7778 190.667 25.3333C190.722 25.2777 190.778 24.2222 190.333 24.6667z"/>
<path style="fill:#b2b2b2; stroke:none;" d="M194.333 24.6667C194.278 24.7222 194.222 25.7778 194.667 25.3333C194.722 25.2777 194.778 24.2222 194.333 24.6667z"/>
<path style="fill:#5f5f5f; stroke:none;" d="M205.333 24.6667C205.278 24.7222 205.222 25.7777 205.667 25.3333C205.722 25.2777 205.778 24.2222 205.333 24.6667z"/>
<path style="fill:#3a3a3a; stroke:none;" d="M206 24C206.763 28.0635 207.224 31.8653 207 36C209.942 33.4326 209.7 27.7957 210 24C208.805 24.5977 209.023 24.4661 208 26C207.232 24.6859 207.314 24.7679 206 24z"/>
<path style="fill:#6f6f6f; stroke:none;" d="M212 24L211 26C212.263 25.0286 212.392 25.3063 212 24z"/>
<path style="fill:#ffffff; stroke:none;" d="M213 24C212.408 25.6362 211.685 27.2824 211.465 29.0247C211.342 30.0014 211.331 31.0206 211.487 31.9954C211.753 33.6574 213.384 39.4423 215.992 36.338C219.059 32.6861 217.127 25.3697 213 24z"/>
<path style="fill:#7d7d7d; stroke:none;" d="M216 24L217 25L216 24z"/>
<path style="fill:#b6b6b6; stroke:none;" d="M235 24L236 25L235 24z"/>
<path style="fill:#2d2d2d; stroke:none;" d="M242 24L242 40C243.812 35.6811 243.812 28.3189 242 24z"/>
<path style="fill:#202020; stroke:none;" d="M244 24L244 41L240 41C241.769 41.779 243.036 41.9124 245 42C245 36.3677 246.191 29.2224 244 24z"/>
<path style="fill:#6e6e6e; stroke:none;" d="M245 24L245 42C246.952 37.349 246.952 28.651 245 24z"/>
<path style="fill:#8f8f8f; stroke:none;" d="M262 24L262 35C263.431 31.59 263.431 27.41 262 24z"/>
<path style="fill:#6f6f6f; stroke:none;" d="M268 24L268 38C269.667 34.0279 269.667 27.9721 268 24z"/>
<path style="fill:#6d6d6d; stroke:none;" d="M17 25L18 26L17 25z"/>
<path style="fill:#bebebe; stroke:none;" d="M23 25L24 26L23 25z"/>
<path style="fill:#6b6b6b; stroke:none;" d="M29 25L30 26L29 25z"/>
<path style="fill:#878787; stroke:none;" d="M53 25L54 26L53 25z"/>
<path style="fill:#8a8a8a; stroke:none;" d="M58 25L59 26L58 25z"/>
<path style="fill:#5c5c5c; stroke:none;" d="M69 25L69 28C69.6961 26.4463 69.6961 26.5537 69 25z"/>
<path style="fill:#cee167; stroke:none;" d="M115 25L116 26L115 25z"/>
<path style="fill:#dff299; stroke:none;" d="M129 25L130 26L129 25z"/>
<path style="fill:#4b4b4b; stroke:none;" d="M184 25L185 26L184 25z"/>
<path style="fill:#bebebe; stroke:none;" d="M212 25L213 26L212 25z"/>
<path style="fill:#7a7a7a; stroke:none;" d="M217 25L217 37C218.512 33.3957 218.512 28.6043 217 25z"/>
<path style="fill:#a5a5a5; stroke:none;" d="M234 25L235 26L234 25z"/>
<path style="fill:#ababab; stroke:none;" d="M17 26L18 27L17 26z"/>
<path style="fill:#b0b0b0; stroke:none;" d="M29 26L30 27L29 26z"/>
<path style="fill:#616161; stroke:none;" d="M52 26L52 35C53.2561 32.0059 53.2561 28.9941 52 26z"/>
<path style="fill:#595959; stroke:none;" d="M59 26L59 29C59.6961 27.4463 59.6961 27.5537 59 26z"/>
<path style="fill:#aeaeae; stroke:none;" d="M75 26L76 27L75 26z"/>
<path style="fill:#d2d2d2; stroke:none;" d="M80 26C81.769 26.7789 83.0359 26.9124 85 27C83.231 26.2211 81.9641 26.0876 80 26z"/>
<path style="fill:#e5f6ab; stroke:none;" d="M106 26L107 27L106 26z"/>
<path style="fill:#d6f285; stroke:none;" d="M121 26L122 27L121 26z"/>
<path style="fill:#626262; stroke:none;" d="M158 26L159 27L158 26z"/>
<path style="fill:#0f0f0f; stroke:none;" d="M159 26L159 29C159.696 27.4463 159.696 27.5537 159 26z"/>
<path style="fill:#d4d4d4; stroke:none;" d="M163 26L164 27L163 26z"/>
<path style="fill:#121212; stroke:none;" d="M174 26L174 30C174.71 28.2405 174.71 27.7595 174 26z"/>
<path style="fill:#cecece; stroke:none;" d="M185 26C186.769 26.7789 188.036 26.9124 190 27C188.231 26.2211 186.964 26.0876 185 26z"/>
<path style="fill:#cfcfcf; stroke:none;" d="M194.333 26.6667C194.278 26.7222 194.222 27.7778 194.667 27.3333C194.722 27.2777 194.778 26.2222 194.333 26.6667z"/>
<path style="fill:#4e4e4e; stroke:none;" d="M195.333 26.6667C195.278 26.7222 195.222 27.7778 195.667 27.3333C195.722 27.2778 195.778 26.2222 195.333 26.6667z"/>
<path style="fill:#d8d8d8; stroke:none;" d="M211.333 26.6667C211.278 26.7222 211.222 27.7778 211.667 27.3333C211.722 27.2778 211.778 26.2222 211.333 26.6667z"/>
<path style="fill:#eeeeee; stroke:none;" d="M234 26L234 43C235.883 38.5135 235.883 30.4865 234 26z"/>
<path style="fill:#959595; stroke:none;" d="M239 26L239 43C240.883 38.5135 240.883 30.4865 239 26z"/>
<path style="fill:#646464; stroke:none;" d="M18 27L19 28L18 27z"/>
<path style="fill:#3e3e3e; stroke:none;" d="M21 27C21.4438 32.3255 19.8686 37.3879 15 40C20.9291 41.9347 25.1164 30.6165 21 27z"/>
<path style="fill:#696969; stroke:none;" d="M28 27L29 28L28 27z"/>
<path style="fill:#9b9b9b; stroke:none;" d="M76 27L77 28L76 27z"/>
<path style="fill:#c0da4e; stroke:none;" d="M106 27L107 28L106 27z"/>
<path style="fill:#d1e882; stroke:none;" d="M114 27L115 28L114 27z"/>
<path style="fill:#c5de4c; stroke:none;" d="M122 27L123 28L122 27z"/>
<path style="fill:#c9e06e; stroke:none;" d="M130 27L131 28L130 27z"/>
<path style="fill:#a3a3a3; stroke:none;" d="M158 27L159 28L158 27z"/>
<path style="fill:#9c9c9c; stroke:none;" d="M163 27L164 28L163 27z"/>
<path style="fill:#a2a2a2; stroke:none;" d="M166.333 27.6667C166.278 27.7222 166.222 28.7778 166.667 28.3333C166.722 28.2778 166.778 27.2222 166.333 27.6667z"/>
<path style="fill:#666666; stroke:none;" d="M171 27L172 28L171 27z"/>
<path style="fill:#1c1c1c; stroke:none;" d="M200 27L200 35C201.161 32.2301 201.161 29.7698 200 27z"/>
<path style="fill:#252525; stroke:none;" d="M240 27L240 40C241.591 36.2087 241.591 30.7913 240 27z"/>
<path style="fill:#ababab; stroke:none;" d="M18 28L19 29L18 28z"/>
<path style="fill:#3f3f3f; stroke:none;" d="M25 28C23.8525 33.5243 25.9652 40.0025 32 41C27.8987 37.0739 27.2199 32.9006 25 28z"/>
<path style="fill:#a0a0a0; stroke:none;" d="M28 28L29 29L28 28z"/>
<path style="fill:#a2a2a2; stroke:none;" d="M46.3333 28.6667C46.2778 28.7222 46.2222 29.7778 46.6667 29.3333C46.7222 29.2778 46.7778 28.2222 46.3333 28.6667z"/>
<path style="fill:#1c1c1c; stroke:none;" d="M47 28C47.0019 31.486 47.0096 34.65 48 38C48.7639 34.82 48.2765 31.0139 47 28z"/>
<path style="fill:#cccccc; stroke:none;" d="M65 28L66 29L65 28z"/>
<path style="fill:#c4c4c4; stroke:none;" d="M69 28L70 29L69 28z"/>
<path style="fill:#616161; stroke:none;" d="M77 28L78 29L77 28z"/>
<path style="fill:#a4a4a4; stroke:none;" d="M78 28L79 29L78 28z"/>
<path style="fill:#d7eb8c; stroke:none;" d="M105 28L106 29L105 28z"/>
<path style="fill:#c3dc4e; stroke:none;" d="M113 28L114 29L113 28z"/>
<path style="fill:#63cfa2; stroke:none;" d="M117.667 28.3333C117.222 28.7778 118.278 28.7222 118.333 28.6667C118.778 28.2222 117.722 28.2778 117.667 28.3333z"/>
<path style="fill:#e9edac; stroke:none;" d="M122 28L123 29L122 28z"/>
<path style="fill:#4a4a4a; stroke:none;" d="M163.333 28.6667C163.278 28.7222 163.222 29.7778 163.667 29.3333C163.722 29.2777 163.778 28.2222 163.333 28.6667z"/>
<path style="fill:#9c9c9c; stroke:none;" d="M171 28L172 29L171 28z"/>
<path style="fill:#6c6c6c; stroke:none;" d="M173.333 28.6667C173.278 28.7222 173.222 29.7778 173.667 29.3333C173.722 29.2777 173.778 28.2222 173.333 28.6667z"/>
<path style="fill:#cccccc; stroke:none;" d="M190.667 28.3333C190.222 28.7778 191.278 28.7222 191.333 28.6667C191.778 28.2222 190.722 28.2778 190.667 28.3333z"/>
<path style="fill:#b2b2b2; stroke:none;" d="M192.667 28.3333C192.222 28.7778 193.278 28.7222 193.333 28.6667C193.778 28.2222 192.722 28.2778 192.667 28.3333z"/>
<path style="fill:#7d7d7d; stroke:none;" d="M194 28L195 29L194 28z"/>
<path style="fill:#e4e4e4; stroke:none;" d="M204 28L204 33C204.83 30.9695 204.83 30.0305 204 28z"/>
<path style="fill:#787878; stroke:none;" d="M19 29L19 32C19.6961 30.4463 19.6961 30.5537 19 29z"/>
<path style="fill:#747474; stroke:none;" d="M27 29L27 32C27.6961 30.4463 27.6961 30.5537 27 29z"/>
<path style="fill:#808080; stroke:none;" d="M59 29L59 35C59.9511 32.7147 59.9511 31.2853 59 29z"/>
<path style="fill:#888888; stroke:none;" d="M65 29L65 32C65.6961 30.4463 65.6961 30.5537 65 29z"/>
<path style="fill:#777777; stroke:none;" d="M70 29L71 30L70 29z"/>
<path style="fill:#a4a4a4; stroke:none;" d="M80 29L81 30L80 29z"/>
<path style="fill:#dcefac; stroke:none;" d="M113 29L114 30L113 29z"/>
<path style="fill:#30a966; stroke:none;" d="M117 29C113.463 38.532 105.83 46.1986 103 56L110 56C109.402 54.8046 109.534 55.0226 108 54C111.422 50.486 110.95 47.5082 112.382 43.1698C113.324 40.3147 115.123 37.9244 116 35C116.07 37.315 115.74 38.7794 115 41C117.277 41.1672 117.685 41.1988 119 43C120.526 40.1043 119.982 38.0667 119 35C120.915 36.2767 120.085 36.2767 122 35L119 29L117 29z"/>
<path style="fill:#70be91; stroke:none;" d="M119 29L120 30L119 29z"/>
<path style="fill:#cedb5c; stroke:none;" d="M123 29L124 30L123 29z"/>
<path style="fill:#d0e766; stroke:none;" d="M131 29L132 30L131 29z"/>
<path style="fill:#767676; stroke:none;" d="M166 29L167 30L166 29z"/>
<path style="fill:#bdbdbd; stroke:none;" d="M187 29L188 30L187 29z"/>
<path style="fill:#686868; stroke:none;" d="M188 29L189 30L188 29z"/>
<path style="fill:#838383; stroke:none;" d="M46.3333 30.6667C46.2778 30.7222 46.2222 31.7778 46.6667 31.3333C46.7222 31.2778 46.7778 30.2222 46.3333 30.6667z"/>
<path style="fill:#d0d0d0; stroke:none;" d="M70 30L71 31L70 30z"/>
<path style="fill:#898989; stroke:none;" d="M71 30L72 31L71 30z"/>
<path style="fill:#8d8d8d; stroke:none;" d="M82 30L83 31L82 30z"/>
<path style="fill:#cdde70; stroke:none;" d="M112 30L113 31L112 30z"/>
<path style="fill:#8fd9a9; stroke:none;" d="M116 30L117 31L116 30z"/>
<path style="fill:#daed86; stroke:none;" d="M132 30L133 31L132 30z"/>
<path style="fill:#9c9c9c; stroke:none;" d="M159.333 30.6667C159.278 30.7222 159.222 31.7778 159.667 31.3333C159.722 31.2778 159.778 30.2222 159.333 30.6667z"/>
<path style="fill:#cccccc; stroke:none;" d="M164.333 30.6667C164.278 30.7222 164.222 31.7778 164.667 31.3333C164.722 31.2778 164.778 30.2222 164.333 30.6667z"/>
<path style="fill:#5e5e5e; stroke:none;" d="M170.333 30.6667C170.278 30.7222 170.222 31.7778 170.667 31.3333C170.722 31.2778 170.778 30.2222 170.333 30.6667z"/>
<path style="fill:#d0d0d0; stroke:none;" d="M185 30L186 31L185 30z"/>
<path style="fill:#838383; stroke:none;" d="M186 30L187 31L186 30z"/>
<path style="fill:#636363; stroke:none;" d="M72 31L73 32L72 31z"/>
<path style="fill:#626262; stroke:none;" d="M83 31L84 32L83 31z"/>
<path style="fill:#cae8bc; stroke:none;" d="M115 31L116 32L115 31z"/>
<path style="fill:#88b7a4; stroke:none;" d="M120 31L121 32L120 31z"/>
<path style="fill:#cde65a; stroke:none;" d="M124 31L125 32L124 31z"/>
<path style="fill:#252525; stroke:none;" d="M160 31C160.506 33.9791 162.668 44.9111 167 40L164 41C163.434 37.1718 162.577 33.9243 160 31z"/>
<path style="fill:#9c9c9c; stroke:none;" d="M185 31L186 32L185 31z"/>
<path style="fill:#080808; stroke:none;" d="M186.667 31.3333C186.222 31.7778 187.278 31.7222 187.333 31.6667C187.778 31.2222 186.722 31.2778 186.667 31.3333z"/>
<path style="fill:#c7c7c7; stroke:none;" d="M18 32L19 33L18 32z"/>
<path style="fill:#bcbcbc; stroke:none;" d="M28 32L29 33L28 32z"/>
<path style="fill:#c9c9c9; stroke:none;" d="M46.3333 32.6667C46.2778 32.7222 46.2222 33.7778 46.6667 33.3333C46.7222 33.2778 46.7778 32.2222 46.3333 32.6667z"/>
<path style="fill:#1b1b1b; stroke:none;" d="M60 32L60 37C60.8299 34.9695 60.8299 34.0305 60 32z"/>
<path style="fill:#bebebe; stroke:none;" d="M65.3333 32.6667C65.2778 32.7222 65.2222 33.7778 65.6667 33.3333C65.7222 33.2778 65.7778 32.2222 65.3333 32.6667z"/>
<path style="fill:#757575; stroke:none;" d="M74 32L75 33L74 32z"/>
<path style="fill:#d3e28f; stroke:none;" d="M111 32L112 33L111 32z"/>
<path style="fill:#4eb57e; stroke:none;" d="M115.333 32.6667C115.278 32.7222 115.222 33.7778 115.667 33.3333C115.722 33.2778 115.778 32.2222 115.333 32.6667z"/>
<path style="fill:#70c297; stroke:none;" d="M121.333 32.6667C121.278 32.7222 121.222 33.7778 121.667 33.3333C121.722 33.2778 121.778 32.2222 121.333 32.6667z"/>
<path style="fill:#efefef; stroke:none;" d="M157 32L157 40C158.161 37.2301 158.161 34.7699 157 32z"/>
<path style="fill:#4c4c4c; stroke:none;" d="M164.333 32.6667C164.278 32.7222 164.222 33.7778 164.667 33.3333C164.722 33.2778 164.778 32.2222 164.333 32.6667z"/>
<path style="fill:#7c7c7c; stroke:none;" d="M165.333 32.6667C165.278 32.7222 165.222 33.7778 165.667 33.3333C165.722 33.2778 165.778 32.2222 165.333 32.6667z"/>
<path style="fill:#aaaaaa; stroke:none;" d="M184 32L185 33L184 32z"/>
<path style="fill:#9d9d9d; stroke:none;" d="M191 32L192 33L191 32z"/>
<path style="fill:#ffffff; stroke:none;" d="M194 38L195 32C190.989 33.219 189.227 36.3979 194 38z"/>
<path style="fill:#e1e1e1; stroke:none;" d="M211 32L211 35C211.696 33.4463 211.696 33.5537 211 32z"/>
<path style="fill:#232323; stroke:none;" d="M233 32L233 40C234.161 37.2301 234.161 34.7699 233 32z"/>
<path style="fill:#1e1e1e; stroke:none;" d="M267 32C267.01 35.0941 266.591 37.896 269 40C268.482 37.2557 268.139 34.5349 267 32z"/>
<path style="fill:#8b8b8b; stroke:none;" d="M18 33L19 34L18 33z"/>
<path style="fill:#272727; stroke:none;" d="M22 33C21.7817 34.6865 21.7761 35.3161 22 37C23.2997 36.3502 23 36.8532 23 35L26 40C26.9336 36.4522 25.055 34.6015 22 33z"/>
<path style="fill:#909090; stroke:none;" d="M28 33L29 34L28 33z"/>
<path style="fill:#767676; stroke:none;" d="M76 33L77 34L76 33z"/>
<path style="fill:#c0c0c0; stroke:none;" d="M85 33L86 34L85 33z"/>
<path style="fill:#e6f8a7; stroke:none;" d="M102 33L103 34L102 33z"/>
<path style="fill:#c5eed3; stroke:none;" d="M114 33L115 34L114 33z"/>
<path style="fill:#d2ec88; stroke:none;" d="M125 33L126 34L125 33z"/>
<path style="fill:#5e5e5e; stroke:none;" d="M184 33L185 34L184 33z"/>
<path style="fill:#8e8e8e; stroke:none;" d="M190 33L191 34L190 33z"/>
<path style="fill:#d7d7d7; stroke:none;" d="M194 33L194 37C194.71 35.2405 194.71 34.7595 194 33z"/>
<path style="fill:#c3c3c3; stroke:none;" d="M17 34L18 35L17 34z"/>
<path style="fill:#1f1f1f; stroke:none;" d="M27 34C27.8492 36.8066 28.5478 38.3884 31 40C30.0689 37.2593 29.1814 35.896 27 34z"/>
<path style="fill:#4e4e4e; stroke:none;" d="M28 34L29 35L28 34z"/>
<path style="fill:#d3d3d3; stroke:none;" d="M29 34L30 35L29 34z"/>
<path style="fill:#d4d4d4; stroke:none;" d="M77 34L78 35L77 34z"/>
<path style="fill:#939393; stroke:none;" d="M78 34L79 35L78 34z"/>
<path style="fill:#686868; stroke:none;" d="M85 34L85 38C85.7102 36.2405 85.7102 35.7595 85 34z"/>
<path style="fill:#c3dd52; stroke:none;" d="M102 34L103 35L102 34z"/>
<path style="fill:#e0f08b; stroke:none;" d="M110 34L111 35L110 34z"/>
<path style="fill:#6abd94; stroke:none;" d="M114 34L115 35L114 34z"/>
<path style="fill:#96dfa8; stroke:none;" d="M122 34L123 35L122 34z"/>
<path style="fill:#c2e556; stroke:none;" d="M126 34L127 35L126 34z"/>
<path style="fill:#cfe47f; stroke:none;" d="M134 34L135 35L134 34z"/>
<path style="fill:#9f9f9f; stroke:none;" d="M160 34L161 35L160 34z"/>
<path style="fill:#141414; stroke:none;" d="M168.333 34.6667C168.278 34.7222 168.222 35.7778 168.667 35.3333C168.722 35.2778 168.778 34.2222 168.333 34.6667z"/>
<path style="fill:#727272; stroke:none;" d="M169 34L170 35L169 34z"/>
<path style="fill:#838383; stroke:none;" d="M17 35L18 36L17 35z"/>
<path style="fill:#777777; stroke:none;" d="M23 35L24 36L23 35z"/>
<path style="fill:#969696; stroke:none;" d="M29 35L30 36L29 35z"/>
<path style="fill:#cfcfcf; stroke:none;" d="M58 35L59 36L58 35z"/>
<path style="fill:#999999; stroke:none;" d="M69 35C70.8084 35.9673 72.4176 36.6984 74 38C75.2346 34.7248 71.4989 35.0414 69 35z"/>
<path style="fill:#9a9a9a; stroke:none;" d="M79 35L80 36L79 35z"/>
<path style="fill:#0c0c0c; stroke:none;" d="M84 35L84 38C84.6961 36.4463 84.6961 36.5537 84 35z"/>
<path style="fill:#d1e682; stroke:none;" d="M101 35L102 36L101 35z"/>
<path style="fill:#c6dd4e; stroke:none;" d="M109 35L110 36L109 35z"/>
<path style="fill:#68c093; stroke:none;" d="M113.333 35.6667C113.278 35.7222 113.222 36.7778 113.667 36.3333C113.722 36.2778 113.778 35.2222 113.333 35.6667z"/>
<path style="fill:#39ae73; stroke:none;" d="M116 35C113.554 40.5877 111.337 43.6912 112 50C114.265 47.5498 118.015 43.8796 115 41C116.11 38.6654 116.697 37.4621 116 35z"/>
<path style="fill:#34b471; stroke:none;" d="M119 35C120.804 42.788 121.182 53.4521 131 55C128.988 47.7023 124.59 40.123 119 35z"/>
<path style="fill:#21a565; stroke:none;" d="M121 35C122.156 39.9192 125.2 43.8501 128 48C129.106 43.6716 124.772 37.1685 121 35z"/>
<path style="fill:#e1f5a5; stroke:none;" d="M126 35L127 36L126 35z"/>
<path style="fill:#dff2a0; stroke:none;" d="M135 35L136 36L135 35z"/>
<path style="fill:#afafaf; stroke:none;" d="M169 35L170 36L169 35z"/>
<path style="fill:#1a1a1a; stroke:none;" d="M184 35C184.176 36.8781 184.438 38.1995 185 40C185.473 37.8571 185.133 36.8987 184 35z"/>
<path style="fill:#4d4d4d; stroke:none;" d="M185.333 35.6667C185.278 35.7222 185.222 36.7778 185.667 36.3333C185.722 36.2778 185.778 35.2222 185.333 35.6667z"/>
<path style="fill:#808080; stroke:none;" d="M205.333 35.6667C205.278 35.7222 205.222 36.7778 205.667 36.3333C205.722 36.2778 205.778 35.2222 205.333 35.6667z"/>
<path style="fill:#a5a5a5; stroke:none;" d="M211 35L212 36L211 35z"/>
<path style="fill:#acacac; stroke:none;" d="M262.333 35.6667C262.278 35.7223 262.222 36.7778 262.667 36.3333C262.722 36.2778 262.778 35.2222 262.333 35.6667z"/>
<path style="fill:#141414; stroke:none;" d="M21 36L20 40C21.1456 38.3595 21.393 37.924 21 36z"/>
<path style="fill:#cdcdcd; stroke:none;" d="M23 36L24 37L23 36z"/>
<path style="fill:#d2d2d2; stroke:none;" d="M30 36L31 37L30 36z"/>
<path style="fill:#a2a2a2; stroke:none;" d="M53 36L54 37L53 36z"/>
<path style="fill:#9a9a9a; stroke:none;" d="M58 36L59 37L58 36z"/>
<path style="fill:#282828; stroke:none;" d="M62 36L60 41C62.5473 39.6274 63.1875 38.7817 64 36L62 36z"/>
<path style="fill:#bfbfbf; stroke:none;" d="M68.3333 36.6667C68.2778 36.7222 68.2222 37.7778 68.6667 37.3333C68.7222 37.2778 68.7778 36.2222 68.3333 36.6667z"/>
<path style="fill:#eaedb0; stroke:none;" d="M109 36L110 37L109 36z"/>
<path style="fill:#4db27a; stroke:none;" d="M123.333 36.6667C123.278 36.7222 123.222 37.7778 123.667 37.3333C123.722 37.2778 123.778 36.2222 123.333 36.6667z"/>
<path style="fill:#cadc74; stroke:none;" d="M127 36L128 37L127 36z"/>
<path style="fill:#515151; stroke:none;" d="M161 36L162 37L161 36z"/>
<path style="fill:#747474; stroke:none;" d="M211 36L212 37L211 36z"/>
<path style="fill:#7a7a7a; stroke:none;" d="M16 37L17 38L16 37z"/>
<path style="fill:#878787; stroke:none;" d="M22 37L23 38L22 37z"/>
<path style="fill:#727272; stroke:none;" d="M24 37L25 38L24 37z"/>
<path style="fill:#8f8f8f; stroke:none;" d="M30 37L31 38L30 37z"/>
<path style="fill:#8d8d8d; stroke:none;" d="M47 37L48 38L47 37z"/>
<path style="fill:#5f5f5f; stroke:none;" d="M53 37L54 38L53 37z"/>
<path style="fill:#acacac; stroke:none;" d="M54 37L55 38L54 37z"/>
<path style="fill:#ababab; stroke:none;" d="M57 37L58 38L57 37z"/>
<path style="fill:#5d5d5d; stroke:none;" d="M58 37L59 38L58 37z"/>
<path style="fill:#909090; stroke:none;" d="M64 37L65 38L64 37z"/>
<path style="fill:#c5c5c5; stroke:none;" d="M79 37L80 38L79 37z"/>
<path style="fill:#cfe36f; stroke:none;" d="M100 37L101 38L100 37z"/>
<path style="fill:#ceda63; stroke:none;" d="M108 37L109 38L108 37z"/>
<path style="fill:#85cd9d; stroke:none;" d="M112 37L113 38L112 37z"/>
<path style="fill:#bcebca; stroke:none;" d="M124 37L125 38L124 37z"/>
<path style="fill:#e2eda4; stroke:none;" d="M136 37L137 38L136 37z"/>
<path style="fill:#848484; stroke:none;" d="M161 37L162 38L161 37z"/>
<path style="fill:#a1a1a1; stroke:none;" d="M190 37L191 38L190 37z"/>
<path style="fill:#aaaaaa; stroke:none;" d="M194 37L195 38L194 37z"/>
<path style="fill:#bababa; stroke:none;" d="M205 37L206 38L205 37z"/>
<path style="fill:#8c8c8c; stroke:none;" d="M212 37L213 38L212 37z"/>
<path style="fill:#949494; stroke:none;" d="M216 37L217 38L216 37z"/>
<path style="fill:#c4c4c4; stroke:none;" d="M262 37L262 40C262.696 38.4463 262.696 38.5537 262 37z"/>
<path style="fill:#5e5e5e; stroke:none;" d="M21.3333 38.6667C21.2778 38.7222 21.2222 39.7778 21.6667 39.3333C21.7222 39.2778 21.7778 38.2222 21.3333 38.6667z"/>
<path style="fill:#d0d0d0; stroke:none;" d="M24 38L25 39L24 38z"/>
<path style="fill:#4b4b4b; stroke:none;" d="M25.3333 38.6667C25.2778 38.7222 25.2222 39.7778 25.6667 39.3333C25.7222 39.2778 25.7778 38.2222 25.3333 38.6667z"/>
<path style="fill:#121212; stroke:none;" d="M50 38C50.4057 40.0924 50.2167 40.0198 52 41C51.3087 39.6116 51.0154 39.1394 50 38z"/>
<path style="fill:#5b5b5b; stroke:none;" d="M55.6667 38.3333C55.2222 38.7778 56.2778 38.7222 56.3333 38.6667C56.7778 38.2222 55.7222 38.2778 55.6667 38.3333z"/>
<path style="fill:#222222; stroke:none;" d="M54 39C56.2393 39.8108 57.647 39.5288 60 39C57.8365 38.3244 56.2684 38.613 54 39z"/>
<path style="fill:#636363; stroke:none;" d="M69 38L70 39L69 38z"/>
<path style="fill:#707070; stroke:none;" d="M75 38L76 39L75 38z"/>
<path style="fill:#d0d0d0; stroke:none;" d="M76.6667 38.3333C76.2222 38.7778 77.2778 38.7222 77.3333 38.6667C77.7778 38.2222 76.7222 38.2778 76.6667 38.3333z"/>
<path style="fill:#919191; stroke:none;" d="M78 38L79 39L78 38z"/>
<path style="fill:#d4d4d4; stroke:none;" d="M85.3333 38.6667C85.2778 38.7222 85.2222 39.7778 85.6667 39.3333C85.7222 39.2778 85.7778 38.2222 85.3333 38.6667z"/>
<path style="fill:#c2d856; stroke:none;" d="M99.3333 38.6667C99.2778 38.7222 99.2222 39.7778 99.6667 39.3333C99.7222 39.2778 99.7778 38.2222 99.3333 38.6667z"/>
<path style="fill:#d1e782; stroke:none;" d="M128 38L129 39L128 38z"/>
<path style="fill:#dde999; stroke:none;" d="M137.333 38.6667C137.278 38.7222 137.222 39.7778 137.667 39.3333C137.722 39.2778 137.778 38.2222 137.333 38.6667z"/>
<path style="fill:#c7c7c7; stroke:none;" d="M161 38L162 39L161 38z"/>
<path style="fill:#c0c0c0; stroke:none;" d="M168.333 38.6667C168.278 38.7222 168.222 39.7777 168.667 39.3333C168.722 39.2778 168.778 38.2222 168.333 38.6667z"/>
<path style="fill:#828282; stroke:none;" d="M191.667 38.3333C191.222 38.7778 192.278 38.7222 192.333 38.6667C192.778 38.2222 191.722 38.2778 191.667 38.3333z"/>
<path style="fill:#4d4d4d; stroke:none;" d="M193.667 38.3333C193.222 38.7778 194.278 38.7222 194.333 38.6667C194.778 38.2222 193.722 38.2778 193.667 38.3333z"/>
<path style="fill:#e7e7e7; stroke:none;" d="M201.333 38.6667C201.278 38.7222 201.222 39.7777 201.667 39.3333C201.722 39.2778 201.778 38.2222 201.333 38.6667z"/>
<path style="fill:#828282; stroke:none;" d="M206.333 38.6667C206.278 38.7222 206.222 39.7778 206.667 39.3333C206.722 39.2778 206.778 38.2222 206.333 38.6667z"/>
<path style="fill:#5b5b5b; stroke:none;" d="M213 38C214.248 38.6848 214.548 38.7488 216 39C214.752 38.3152 214.452 38.2512 213 38z"/>
<path style="fill:#3b3b3b; stroke:none;" d="M269 38C268.455 39.6352 268.635 39.4549 267 40C268.506 40.683 269.315 40.8259 271 41C270.309 39.6116 270.015 39.1393 269 38z"/>
<path style="fill:#1b1b1b; stroke:none;" d="M270 38C270 39.7968 270.014 39.5215 271 41L266 41C268.052 41.8743 269.747 41.9528 272 42C271.693 39.8773 271.618 39.314 270 38z"/>
<path style="fill:#cfcfcf; stroke:none;" d="M15 39L16 40L15 39z"/>
<path style="fill:#b8b8b8; stroke:none;" d="M31 39L32 40L31 39z"/>
<path style="fill:#7e7e7e; stroke:none;" d="M48 39L49 40L48 39z"/>
<path style="fill:#828282; stroke:none;" d="M63 39L64 40L63 39z"/>
<path style="fill:#959595; stroke:none;" d="M69 39L70 40L69 39z"/>
<path style="fill:#cbe560; stroke:none;" d="M107 39L108 40L107 39z"/>
<path style="fill:#92b5a7; stroke:none;" d="M111 39L112 40L111 39z"/>
<path style="fill:#c2e7cd; stroke:none;" d="M125 39L126 40L125 39z"/>
<path style="fill:#a7a7a7; stroke:none;" d="M184 39L185 40L184 39z"/>
<path style="fill:#0d0d0d; stroke:none;" d="M5 40C5.98024 41.7833 5.90759 41.5943 8 42C6.86065 40.9846 6.38843 40.6913 5 40z"/>
<path style="fill:#1e1e1e; stroke:none;" d="M19 40L15 41C16.5531 41.8905 20.0798 42.6156 19 40z"/>
<path style="fill:#424242; stroke:none;" d="M20.3333 40.6667C20.2778 40.7222 20.2222 41.7778 20.6667 41.3333C20.7222 41.2778 20.7778 40.2222 20.3333 40.6667z"/>
<path style="fill:#c8c8c8; stroke:none;" d="M21.3333 40.6667C21.2778 40.7222 21.2222 41.7778 21.6667 41.3333C21.7222 41.2778 21.7778 40.2222 21.3333 40.6667z"/>
<path style="fill:#c4c4c4; stroke:none;" d="M25.3333 40.6667C25.2778 40.7222 25.2222 41.7778 25.6667 41.3333C25.7222 41.2778 25.7778 40.2222 25.3333 40.6667z"/>
<path style="fill:#4c4c4c; stroke:none;" d="M26.3333 40.6667C26.2778 40.7222 26.2222 41.7778 26.6667 41.3333C26.7222 41.2778 26.7778 40.2222 26.3333 40.6667z"/>
<path style="fill:#1f1f1f; stroke:none;" d="M27 40C28.5398 41.8031 29.5975 41.832 32 42C30.3519 41.0759 28.8251 40.5506 27 40z"/>
<path style="fill:#000000; stroke:none;" d="M37.3333 40.6667C37.2778 40.7222 37.2222 41.7778 37.6667 41.3333C37.7222 41.2778 37.7778 40.2222 37.3333 40.6667z"/>
<path style="fill:#848484; stroke:none;" d="M49 40L50 41L49 40M62 40L63 41L62 40z"/>
<path style="fill:#a0a0a0; stroke:none;" d="M70 40L71 41L70 40z"/>
<path style="fill:#d4d4d4; stroke:none;" d="M84 40L85 41L84 40z"/>
<path style="fill:#d2e87a; stroke:none;" d="M98 40L99 41L98 40z"/>
<path style="fill:#76c59e; stroke:none;" d="M110.333 40.6667C110.278 40.7222 110.222 41.7778 110.667 41.3333C110.722 41.2778 110.778 40.2222 110.333 40.6667z"/>
<path style="fill:#3d8f64; stroke:none;" d="M117 40L117 42L119 42L119 40L117 40z"/>
<path style="fill:#c4c4c4; stroke:none;" d="M157 40L157 43C157.696 41.4463 157.696 41.5537 157 40z"/>
<path style="fill:#999999; stroke:none;" d="M162.333 40.6667C162.278 40.7222 162.222 41.7778 162.667 41.3333C162.722 41.2778 162.778 40.2222 162.333 40.6667z"/>
<path style="fill:#535353; stroke:none;" d="M167.333 40.6667C167.278 40.7222 167.222 41.7778 167.667 41.3333C167.722 41.2778 167.778 40.2222 167.333 40.6667z"/>
<path style="fill:#818181; stroke:none;" d="M185 40L186 41L185 40z"/>
<path style="fill:#9c9c9c; stroke:none;" d="M201 40L201 43C201.696 41.4463 201.696 41.5537 201 40z"/>
<path style="fill:#646464; stroke:none;" d="M207 40L208 41L207 40z"/>
<path style="fill:#e3e3e3; stroke:none;" d="M227 40L227 43C227.696 41.4463 227.696 41.5537 227 40z"/>
<path style="fill:#373737; stroke:none;" d="M228.333 40.6667C228.278 40.7222 228.222 41.7778 228.667 41.3333C228.722 41.2778 228.778 40.2222 228.333 40.6667z"/>
<path style="fill:#070707; stroke:none;" d="M229.333 40.6667C229.278 40.7222 229.222 41.7778 229.667 41.3333C229.722 41.2778 229.778 40.2222 229.333 40.6667z"/>
<path style="fill:#777777; stroke:none;" d="M263 40L264 41L263 40z"/>
<path style="fill:#a0a0a0; stroke:none;" d="M14.3333 41.6667C14.2778 41.7222 14.2222 42.7778 14.6667 42.3333C14.7222 42.2778 14.7778 41.2222 14.3333 41.6667z"/>
<path style="fill:#939393; stroke:none;" d="M32.3333 41.6667C32.2778 41.7222 32.2222 42.7778 32.6667 42.3333C32.7222 42.2778 32.7778 41.2222 32.3333 41.6667z"/>
<path style="fill:#181818; stroke:none;" d="M38 41C39.2484 41.6848 39.5484 41.7488 41 42C39.7516 41.3152 39.4516 41.2512 38 41z"/>
<path style="fill:#8d8d8d; stroke:none;" d="M50 41L51 42L50 41z"/>
<path style="fill:#4f4f4f; stroke:none;" d="M60 41L61 42L60 41z"/>
<path style="fill:#8d8d8d; stroke:none;" d="M61 41L62 42L61 41z"/>
<path style="fill:#b3b3b3; stroke:none;" d="M71 41L72 42L71 41z"/>
<path style="fill:#050505; stroke:none;" d="M80 41L81 42L80 41z"/>
<path style="fill:#737373; stroke:none;" d="M82 41L83 42L82 41z"/>
<path style="fill:#bebebe; stroke:none;" d="M83 41L84 42L83 41z"/>
<path style="fill:#d2e985; stroke:none;" d="M106 41L107 42L106 41z"/>
<path style="fill:#29a564; stroke:none;" d="M121 41C121.81 43.2222 122.739 44.9902 124 47C124.41 44.1117 123.153 42.8855 121 41z"/>
<path style="fill:#9cd1b5; stroke:none;" d="M126 41L127 42L126 41z"/>
<path style="fill:#c6db55; stroke:none;" d="M130 41L131 42L130 41z"/>
<path style="fill:#d2ea74; stroke:none;" d="M138 41L139 42L138 41z"/>
<path style="fill:#7c7c7c; stroke:none;" d="M186 41L187 42L186 41z"/>
<path style="fill:#5e5e5e; stroke:none;" d="M194.667 41.3333C194.222 41.7778 195.278 41.7222 195.333 41.6667C195.778 41.2222 194.722 41.2778 194.667 41.3333z"/>
<path style="fill:#212121; stroke:none;" d="M196 41C197.769 41.7789 199.036 41.9124 201 42C199.231 41.2211 197.964 41.0876 196 41z"/>
<path style="fill:#8f8f8f; stroke:none;" d="M216 41L217 42L216 41z"/>
<path style="fill:#181818; stroke:none;" d="M231.667 41.3333C231.222 41.7778 232.278 41.7222 232.333 41.6667C232.778 41.2222 231.722 41.2778 231.667 41.3333z"/>
<path style="fill:#686868; stroke:none;" d="M4 42C6.0521 42.8742 7.74718 42.9528 10 43C7.9479 42.1258 6.25282 42.0472 4 42z"/>
<path style="fill:#707070; stroke:none;" d="M15 42C17.0521 42.8742 18.7472 42.9528 21 43C18.9479 42.1258 17.2528 42.0472 15 42z"/>
<path style="fill:#666666; stroke:none;" d="M26 42C28.0521 42.8742 29.7472 42.9528 32 43C29.9479 42.1258 28.2528 42.0472 26 42z"/>
<path style="fill:#707070; stroke:none;" d="M36 42C38.0521 42.8742 39.7472 42.9528 42 43C39.9479 42.1258 38.2528 42.0472 36 42z"/>
<path style="fill:#c3c3c3; stroke:none;" d="M51 42L52 43L51 42z"/>
<path style="fill:#4e4e4e; stroke:none;" d="M52.6667 42.3333C52.2222 42.7778 53.2778 42.7222 53.3333 42.6667C53.7778 42.2222 52.7222 42.2778 52.6667 42.3333z"/>
<path style="fill:#787878; stroke:none;" d="M59 42L60 43L59 42z"/>
<path style="fill:#c3c3c3; stroke:none;" d="M60 42L61 43L60 42z"/>
<path style="fill:#999999; stroke:none;" d="M72.6667 42.3333C72.2222 42.7778 73.2778 42.7222 73.3333 42.6667C73.7778 42.2222 72.7222 42.2778 72.6667 42.3333z"/>
<path style="fill:#434343; stroke:none;" d="M74.6667 42.3333C74.2222 42.7778 75.2778 42.7222 75.3333 42.6667C75.7778 42.2222 74.7222 42.2778 74.6667 42.3333z"/>
<path style="fill:#6f6f6f; stroke:none;" d="M80 42L81 43L80 42z"/>
<path style="fill:#b5b5b5; stroke:none;" d="M81 42L82 43L81 42z"/>
<path style="fill:#cde278; stroke:none;" d="M97 42L98 43L97 42z"/>
<path style="fill:#c3e555; stroke:none;" d="M105 42L106 43L105 42z"/>
<path style="fill:#97e0a9; stroke:none;" d="M109 42L110 43L109 42z"/>
<path style="fill:#001e32; stroke:none;" d="M117 42C115.284 46.1754 113.245 50.087 111 54C115.558 55.3473 120.27 55 125 55C123.964 50.6414 122.069 46.9487 120 43C118.7 43.6498 119 43.1468 119 45L117 42z"/>
<path style="fill:#00001c; stroke:none;" d="M118 42L118 45C118.696 43.4463 118.696 43.5537 118 42z"/>
<path style="fill:#eaf6b4; stroke:none;" d="M139 42L140 43L139 42z"/>
<path style="fill:#727272; stroke:none;" d="M151 42C153.052 42.8743 154.747 42.9528 157 43C154.948 42.1258 153.253 42.0472 151 42z"/>
<path style="fill:#cfcfcf; stroke:none;" d="M162 42L163 43L162 42z"/>
<path style="fill:#717171; stroke:none;" d="M163 42C164.506 42.683 165.315 42.8259 167 43C165.494 42.317 164.685 42.1741 163 42z"/>
<path style="fill:#b2b2b2; stroke:none;" d="M167 42L168 43L167 42z"/>
<path style="fill:#6d6d6d; stroke:none;" d="M173 42C175.052 42.8743 176.747 42.9528 179 43C176.948 42.1258 175.253 42.0472 173 42z"/>
<path style="fill:#9f9f9f; stroke:none;" d="M187 42L188 43L187 42z"/>
<path style="fill:#5b5b5b; stroke:none;" d="M192 42L193 43L192 42z"/>
<path style="fill:#afafaf; stroke:none;" d="M193 42L194 43L193 42z"/>
<path style="fill:#c4c4c4; stroke:none;" d="M195 42L196 43L195 42z"/>
<path style="fill:#5c5c5c; stroke:none;" d="M196.667 42.3333C196.222 42.7778 197.278 42.7222 197.333 42.6667C197.778 42.2222 196.722 42.2778 196.667 42.3333z"/>
<path style="fill:#757575; stroke:none;" d="M198 42C199.248 42.6848 199.548 42.7488 201 43C199.752 42.3152 199.452 42.2512 198 42z"/>
<path style="fill:#aaaaaa; stroke:none;" d="M209 42L210 43L209 42z"/>
<path style="fill:#141414; stroke:none;" d="M211.667 42.3333C211.222 42.7778 212.278 42.7222 212.333 42.6667C212.778 42.2222 211.722 42.2778 211.667 42.3333z"/>
<path style="fill:#656565; stroke:none;" d="M214.667 42.3333C214.222 42.7778 215.278 42.7222 215.333 42.6667C215.778 42.2222 214.722 42.2778 214.667 42.3333z"/>
<path style="fill:#7d7d7d; stroke:none;" d="M217 42L217 45C217.696 43.4463 217.696 43.5537 217 42z"/>
<path style="fill:#646464; stroke:none;" d="M228 42C230.052 42.8743 231.747 42.9528 234 43C231.948 42.1258 230.253 42.0472 228 42z"/>
<path style="fill:#6d6d6d; stroke:none;" d="M240 42C241.769 42.779 243.036 42.9124 245 43C243.231 42.2211 241.964 42.0876 240 42z"/>
<path style="fill:#a5a5a5; stroke:none;" d="M245 42L246 43L245 42z"/>
<path style="fill:#6c6c6c; stroke:none;" d="M251 42C252.769 42.7789 254.036 42.9124 256 43C254.231 42.2211 252.964 42.0876 251 42z"/>
<path style="fill:#ababab; stroke:none;" d="M256 42L257 43L256 42z"/>
<path style="fill:#7b7b7b; stroke:none;" d="M264.667 42.3333C264.222 42.7777 265.278 42.7223 265.333 42.6667C265.778 42.2222 264.722 42.2778 264.667 42.3333z"/>
<path style="fill:#303030; stroke:none;" d="M266 42C268.052 42.8743 269.747 42.9528 272 43C269.948 42.1258 268.253 42.0472 266 42z"/>
<path style="fill:#d3d3d3; stroke:none;" d="M55.6667 43.3333C55.2222 43.7778 56.2778 43.7222 56.3333 43.6667C56.7778 43.2222 55.7222 43.2778 55.6667 43.3333z"/>
<path style="fill:#e7e7e7; stroke:none;" d="M75 43C76.2484 43.6848 76.5484 43.7488 78 44C76.7517 43.3152 76.4516 43.2512 75 43z"/>
<path style="fill:#e0f3a2; stroke:none;" d="M105 43L106 44L105 43z"/>
<path style="fill:#c7edd3; stroke:none;" d="M108 43L109 44L108 43z"/>
<path style="fill:#75c68e; stroke:none;" d="M127 43L128 44L127 43z"/>
<path style="fill:#cbdd6f; stroke:none;" d="M131 43L132 44L131 43z"/>
<path style="fill:#c4dc52; stroke:none;" d="M139 43L140 44L139 43z"/>
<path style="fill:#cecece; stroke:none;" d="M267 43C268.248 43.6848 268.548 43.7488 270 44C268.752 43.3152 268.452 43.2512 267 43z"/>
<path style="fill:#c2db5a; stroke:none;" d="M96 44L97 45L96 44z"/>
<path style="fill:#c2d369; stroke:none;" d="M104 44L105 45L104 44z"/>
<path style="fill:#55b67f; stroke:none;" d="M108.333 44.6667C108.278 44.7222 108.222 45.7778 108.667 45.3333C108.722 45.2778 108.778 44.2222 108.333 44.6667z"/>
<path style="fill:#e2f0a5; stroke:none;" d="M140 44L141 45L140 44z"/>
<path style="fill:#c5f0d0; stroke:none;" d="M107 45L108 46L107 45z"/>
<path style="fill:#72bd99; stroke:none;" d="M128 45L129 46L128 45z"/>
<path style="fill:#d4e78f; stroke:none;" d="M132 45L133 46L132 45z"/>
<path style="fill:#bed940; stroke:none;" d="M140 45L141 46L140 45z"/>
<path style="fill:#afafaf; stroke:none;" d="M208 45L209 46L208 45z"/>
<path style="fill:#dfec9c; stroke:none;" d="M94.3333 46.6667C94.2778 46.7222 94.2222 47.7778 94.6667 47.3333C94.7222 47.2778 94.7778 46.2222 94.3333 46.6667z"/>
<path style="fill:#c5d954; stroke:none;" d="M95 46L96 47L95 46z"/>
<path style="fill:#cce27e; stroke:none;" d="M103 46L104 47L103 46z"/>
<path style="fill:#75cc91; stroke:none;" d="M107 46L108 47L107 46z"/>
<path style="fill:#3b7962; stroke:none;" d="M114.333 46.6667C114.278 46.7222 114.222 47.7778 114.667 47.3333C114.722 47.2778 114.778 46.2222 114.333 46.6667z"/>
<path style="fill:#7ac0ac; stroke:none;" d="M129.333 46.6667C129.278 46.7223 129.222 47.7778 129.667 47.3333C129.722 47.2778 129.778 46.2222 129.333 46.6667z"/>
<path style="fill:#d0e699; stroke:none;" d="M133.333 46.6667C133.278 46.7223 133.222 47.7778 133.667 47.3333C133.722 47.2778 133.778 46.2222 133.333 46.6667z"/>
<path style="fill:#d5e778; stroke:none;" d="M141 46L142 47L141 46z"/>
<path style="fill:#555555; stroke:none;" d="M209 46L210 47L209 46z"/>
<path style="fill:#a4a4a4; stroke:none;" d="M210 46L211 47L210 46z"/>
<path style="fill:#6f6f6f; stroke:none;" d="M216 46L217 47L216 46z"/>
<path style="fill:#c0e2c9; stroke:none;" d="M106 47L107 48L106 47z"/>
<path style="fill:#9c9c9c; stroke:none;" d="M207 47L208 48L207 47z"/>
<path style="fill:#5e5e5e; stroke:none;" d="M212.667 47.3333C212.222 47.7777 213.278 47.7222 213.333 47.6667C213.778 47.2222 212.722 47.2778 212.667 47.3333z"/>
<path style="fill:#434343; stroke:none;" d="M218 47C216.964 48.1863 216.661 48.6036 216 50C217.849 49.0326 218.722 48.8599 218 47z"/>
<path style="fill:#ffffd1; stroke:none;" d="M102.333 48.6667C102.278 48.7222 102.222 49.7778 102.667 49.3333C102.722 49.2778 102.778 48.2222 102.333 48.6667z"/>
<path style="fill:#12433f; stroke:none;" d="M113 48L112 52C113.303 50.3324 113.553 50.0078 113 48z"/>
<path style="fill:#25af64; stroke:none;" d="M129 48C129.426 50.4691 130.132 52.6454 131 55L127 55C129.332 55.9845 131.457 55.9813 134 56C132.914 52.7274 131.444 50.4314 129 48z"/>
<path style="fill:#53b97d; stroke:none;" d="M130.333 48.6667C130.278 48.7223 130.222 49.7778 130.667 49.3333C130.722 49.2778 130.778 48.2222 130.333 48.6667z"/>
<path style="fill:#dff39f; stroke:none;" d="M134.333 48.6667C134.278 48.7223 134.222 49.7778 134.667 49.3333C134.722 49.2778 134.778 48.2222 134.333 48.6667z"/>
<path style="fill:#747474; stroke:none;" d="M221 48L222 49L221 48z"/>
<path style="fill:#d1e583; stroke:none;" d="M93 49L94 50L93 49z"/>
<path style="fill:#c1d946; stroke:none;" d="M101 49L102 50L101 49z"/>
<path style="fill:#a6d5b6; stroke:none;" d="M105 49L106 50L105 49z"/>
<path style="fill:#daec97; stroke:none;" d="M143 49L144 50L143 49z"/>
<path style="fill:#cdcdcd; stroke:none;" d="M206 49L207 50L206 49z"/>
<path style="fill:#555555; stroke:none;" d="M212 49C213.506 49.683 214.315 49.8259 216 50C214.494 49.317 213.685 49.1741 212 49z"/>
<path style="fill:#5d5d5d; stroke:none;" d="M220 49L221 50L220 49z"/>
<path style="fill:#bebebe; stroke:none;" d="M221 49L222 50L221 49z"/>
<path style="fill:#e9ee9b; stroke:none;" d="M101 50L102 51L101 50z"/>
<path style="fill:#3fb276; stroke:none;" d="M111 50L108 55C110.343 53.6534 111.401 52.7408 111 50z"/>
<path style="fill:#7ac99e; stroke:none;" d="M131 50L132 51L131 50z"/>
<path style="fill:#d1e592; stroke:none;" d="M135 50L136 51L135 50z"/>
<path style="fill:#bfbfbf; stroke:none;" d="M207 50L208 51L207 50z"/>
<path style="fill:#424242; stroke:none;" d="M208.667 50.3333C208.222 50.7777 209.278 50.7222 209.333 50.6667C209.778 50.2222 208.722 50.2778 208.667 50.3333z"/>
<path style="fill:#878787; stroke:none;" d="M219 50L220 51L219 50z"/>
<path style="fill:#cae060; stroke:none;" d="M92 51L93 52L92 51z"/>
<path style="fill:#c8db63; stroke:none;" d="M100 51L101 52L100 51z"/>
<path style="fill:#83c896; stroke:none;" d="M104 51L105 52L104 51z"/>
<path style="fill:#173c42; stroke:none;" d="M124.333 51.6667C124.278 51.7222 124.222 52.7778 124.667 52.3333C124.722 52.2778 124.778 51.2222 124.333 51.6667z"/>
<path style="fill:#abe2c5; stroke:none;" d="M132 51L133 52L132 51z"/>
<path style="fill:#e5f493; stroke:none;" d="M144 51L145 52L144 51z"/>
<path style="fill:#b8b8b8; stroke:none;" d="M208.667 51.3333C208.222 51.7777 209.278 51.7222 209.333 51.6667C209.778 51.2222 208.722 51.2778 208.667 51.3333z"/>
<path style="fill:#838383; stroke:none;" d="M210 51L211 52L210 51z"/>
<path style="fill:#929292; stroke:none;" d="M216.667 51.3333C216.222 51.7777 217.278 51.7222 217.333 51.6667C217.778 51.2222 216.722 51.2778 216.667 51.3333z"/>
<path style="fill:#d4d4d4; stroke:none;" d="M218 51L219 52L218 51z"/>
<path style="fill:#e7f5ab; stroke:none;" d="M91 52L92 53L91 52z"/>
<path style="fill:#2e7355; stroke:none;" d="M111 52L112 53L111 52z"/>
<path style="fill:#d0e292; stroke:none;" d="M136 52L137 53L136 52z"/>
<path style="fill:#e3e3e3; stroke:none;" d="M212.667 52.3333C212.222 52.7777 213.278 52.7222 213.333 52.6667C213.778 52.2222 212.722 52.2778 212.667 52.3333z"/>
<path style="fill:#c2dc47; stroke:none;" d="M91 53L92 54L91 53z"/>
<path style="fill:#cce36c; stroke:none;" d="M99 53L100 54L99 53z"/>
<path style="fill:#76c58f; stroke:none;" d="M103 53L104 54L103 53z"/>
<path style="fill:#0a4c3c; stroke:none;" d="M125 53C125.684 54.58 125.805 54.7772 127 56C126.316 54.42 126.195 54.2228 125 53z"/>
<path style="fill:#a3d5b0; stroke:none;" d="M133 53L134 54L133 53z"/>
<path style="fill:#c9e459; stroke:none;" d="M137 53L138 54L137 53z"/>
<path style="fill:#cadb78; stroke:none;" d="M145 53L146 54L145 53z"/>
<path style="fill:#d7e880; stroke:none;" d="M90 54L91 55L90 54z"/>
<path style="fill:#cce973; stroke:none;" d="M98.3333 54.6667C98.2778 54.7222 98.2222 55.7778 98.6667 55.3333C98.7222 55.2778 98.7778 54.2222 98.3333 54.6667z"/>
<path style="fill:#a2debe; stroke:none;" d="M102 54L103 55L102 54z"/>
<path style="fill:#246251; stroke:none;" d="M110 54L111 55L110 54z"/>
<path style="fill:#00081b; stroke:none;" d="M110 55C114.724 56.9822 120.91 56 126 56C121.537 54.1273 114.788 54.4736 110 55z"/>
<path style="fill:#93d2ac; stroke:none;" d="M134.333 54.6667C134.278 54.7222 134.222 55.7778 134.667 55.3333C134.722 55.2778 134.778 54.2222 134.333 54.6667z"/>
<path style="fill:#e2efa0; stroke:none;" d="M146 54L147 55L146 54z"/>
<path style="fill:#68c080; stroke:none;" d="M102 55L103 56L102 55z"/>
<path style="fill:#bbd74a; stroke:none;" d="M138 55L139 56L138 55z"/>
<path style="fill:#c5de3f; stroke:none;" d="M146 55L147 56L146 55z"/>
<path style="fill:#f3f8d4; stroke:none;" d="M88 56C90.6127 57.0977 93.1645 56.9928 96 57C93.3873 55.9023 90.8355 56.0072 88 56z"/>
<path style="fill:#e1eeec; stroke:none;" d="M102 58C113.043 55.9498 124.797 57 136 57C129.084 54.0977 118.478 55.9966 111 56C107.683 56.0015 104.276 55.3958 102 58z"/>
<path style="fill:#f5f9e0; stroke:none;" d="M138 56C141.235 58.0884 145.205 57.031 149 57C145.568 55.5597 141.7 56 138 56z"/>
</svg>
